M48
; DRILL file {KiCad (5.1.9)-1} date 05/30/21 19:53:38
; FORMAT={-:-/ absolute / inch / decimal}
; #@! TF.CreationDate,2021-05-30T19:53:38+08:00
; #@! TF.GenerationSoftware,Kicad,Pcbnew,(5.1.9)-1
; #@! TF.FileFunction,Plated,1,2,PTH
FMAT,2
INCH
T1C0.0120
T2C0.0197
T3C0.0217
T4C0.0394
T5C0.0400
T6C0.1200
%
G90
G05
T1
X5.1Y-4.615
X5.285Y-3.45
X5.57Y-3.54
X5.57Y-3.59
X5.71Y-3.5
X5.71Y-3.77
X5.78Y-3.77
X5.78Y-4.54
X5.895Y-4.09
X5.925Y-3.95
X5.9626Y-4.0224
X5.985Y-3.7
X6.055Y-4.0219
X6.0551Y-3.9899
X6.15Y-3.565
X6.495Y-3.145
X6.535Y-3.59
X6.655Y-3.82
X6.66Y-4.26
X6.675Y-3.59
X6.715Y-4.27
X6.73Y-3.535
X6.77Y-3.96
X6.77Y-4.27
X6.825Y-3.865
X6.825Y-4.265
T4
X5.4708Y-4.375
X5.4708Y-4.65
X5.5708Y-4.375
X5.5708Y-4.65
X5.6708Y-4.375
X5.6708Y-4.65
X5.96Y-4.6539
X6.06Y-4.6539
X6.16Y-4.6539
X6.26Y-4.6539
X6.36Y-4.6539
X6.46Y-4.6539
X6.56Y-4.6539
X6.66Y-4.6539
T5
X5.11Y-2.975
X5.21Y-2.975
X5.31Y-2.975
X5.41Y-2.975
X5.47Y-4.875
X5.51Y-2.975
X5.57Y-4.875
X5.61Y-2.975
X5.67Y-4.875
X5.71Y-2.975
X5.77Y-4.875
X5.81Y-2.975
X5.87Y-4.875
X5.91Y-2.975
X5.97Y-4.875
X6.01Y-2.975
X6.07Y-4.875
X6.17Y-2.975
X6.17Y-4.875
X6.27Y-2.975
X6.37Y-2.975
X6.37Y-4.875
X6.47Y-2.975
X6.47Y-4.875
X6.57Y-2.975
X6.57Y-4.875
X6.67Y-2.975
X6.67Y-4.875
X6.77Y-2.975
X6.77Y-4.875
X6.87Y-2.975
X6.87Y-4.875
T6
X4.92Y-4.875
X4.97Y-2.975
X6.97Y-3.575
X6.97Y-4.675
T2
G00X4.4408Y-3.2876
M15
G01X4.4152Y-3.2876
M16
G05
G00X4.4408Y-3.5632
M15
G01X4.4152Y-3.5632
M16
G05
T3
G00X4.5343Y-3.321
M15
G01X4.5343Y-3.3329
M16
G05
G00X4.5343Y-3.5179
M15
G01X4.5343Y-3.5297
M16
G05
T4
G00X4.5338Y-4.6356
M15
G01X4.5338Y-4.7144
M16
G05
G00X4.6125Y-4.86
M15
G01X4.6913Y-4.86
M16
G05
G00X4.77Y-4.6356
M15
G01X4.77Y-4.7144
M16
G05
T0
M30
