%TF.GenerationSoftware,KiCad,Pcbnew,(5.1.9)-1*%
%TF.CreationDate,2021-05-30T19:53:41+08:00*%
%TF.ProjectId,Tuya_RGB,54757961-5f52-4474-922e-6b696361645f,rev?*%
%TF.SameCoordinates,Original*%
%TF.FileFunction,Legend,Bot*%
%TF.FilePolarity,Positive*%
%FSLAX46Y46*%
G04 Gerber Fmt 4.6, Leading zero omitted, Abs format (unit mm)*
G04 Created by KiCad (PCBNEW (5.1.9)-1) date 2021-05-30 19:53:41*
%MOMM*%
%LPD*%
G01*
G04 APERTURE LIST*
%ADD10C,0.010000*%
G04 APERTURE END LIST*
D10*
%TO.C,G\u002A\u002A\u002A*%
G36*
X155054109Y-79521906D02*
G01*
X154600238Y-80059247D01*
X154019172Y-80829278D01*
X153821731Y-81105904D01*
X153232968Y-81940442D01*
X152769890Y-82594192D01*
X152509656Y-82958317D01*
X152481984Y-82995691D01*
X152243969Y-82941400D01*
X152022462Y-82786138D01*
X151005533Y-82254200D01*
X149847432Y-82126382D01*
X148708589Y-82381635D01*
X147749432Y-82998911D01*
X147418495Y-83390184D01*
X146820654Y-84513516D01*
X146685234Y-85560594D01*
X147001611Y-86692322D01*
X147176198Y-87059029D01*
X147817412Y-88315800D01*
X142297148Y-88315800D01*
X140652638Y-88321478D01*
X139203268Y-88337347D01*
X138026587Y-88361655D01*
X137200142Y-88392653D01*
X136801484Y-88428593D01*
X136776884Y-88440356D01*
X136911999Y-88712317D01*
X137257876Y-89272712D01*
X137536903Y-89697127D01*
X137933353Y-90295589D01*
X138517322Y-91186856D01*
X139224431Y-92271618D01*
X139990302Y-93450565D01*
X140750557Y-94624385D01*
X141440818Y-95693770D01*
X141996707Y-96559410D01*
X142353845Y-97121993D01*
X142427747Y-97241782D01*
X142474522Y-97442434D01*
X142403657Y-97760046D01*
X142185956Y-98246428D01*
X141792222Y-98953384D01*
X141193259Y-99932721D01*
X140359868Y-101236247D01*
X139262852Y-102915767D01*
X139033330Y-103264759D01*
X136769481Y-106704342D01*
X142660161Y-106779716D01*
X148550842Y-106855090D01*
X149328509Y-107970341D01*
X150069311Y-109014594D01*
X151121145Y-110468517D01*
X152486984Y-112336196D01*
X154042213Y-114448843D01*
X155266479Y-116107927D01*
X155937803Y-115242593D01*
X156352530Y-114692596D01*
X156989576Y-113829443D01*
X157763093Y-112770153D01*
X158587233Y-111631744D01*
X158610732Y-111599133D01*
X159442127Y-110445829D01*
X160230620Y-109353154D01*
X160887776Y-108443592D01*
X161325162Y-107839622D01*
X161328465Y-107835075D01*
X162044592Y-106849142D01*
X167928445Y-106842888D01*
X173812298Y-106836633D01*
X173792929Y-106805592D01*
X161118550Y-106805592D01*
X160968112Y-107080815D01*
X160552426Y-107702083D01*
X159924937Y-108593005D01*
X159139090Y-109677188D01*
X158579596Y-110434690D01*
X157698193Y-111627438D01*
X156917483Y-112698513D01*
X156297786Y-113564025D01*
X155899427Y-114140086D01*
X155792162Y-114311113D01*
X155502816Y-114690450D01*
X155185473Y-114679725D01*
X154758415Y-114247378D01*
X154422031Y-113781946D01*
X153081039Y-111875525D01*
X151555295Y-109784793D01*
X150914900Y-108927590D01*
X150341125Y-108156059D01*
X149888421Y-107531040D01*
X149662651Y-107199945D01*
X149791785Y-107142074D01*
X150297902Y-107270502D01*
X151074057Y-107557447D01*
X151135052Y-107582469D01*
X153344475Y-108225632D01*
X155608678Y-108383373D01*
X157833034Y-108060898D01*
X159922916Y-107263412D01*
X160258655Y-107080609D01*
X160806843Y-106817613D01*
X161102084Y-106773002D01*
X161118550Y-106805592D01*
X173792929Y-106805592D01*
X172823237Y-105251606D01*
X172290065Y-104402220D01*
X171566330Y-103256156D01*
X170746442Y-101962619D01*
X169924809Y-100670810D01*
X169912625Y-100651692D01*
X169011395Y-99175744D01*
X168436606Y-98079526D01*
X168178202Y-97334372D01*
X168226125Y-96911617D01*
X168555191Y-96782467D01*
X168784678Y-96580195D01*
X168791467Y-96517121D01*
X168930102Y-96205344D01*
X169307992Y-95549818D01*
X169868119Y-94645239D01*
X170553464Y-93586309D01*
X170583682Y-93540558D01*
X171363739Y-92347970D01*
X172112364Y-91181462D01*
X172737712Y-90185384D01*
X173108377Y-89572571D01*
X173378237Y-89109550D01*
X172556493Y-89109550D01*
X172077421Y-89837154D01*
X171715556Y-90398615D01*
X171174183Y-91252409D01*
X170552860Y-92241273D01*
X170360534Y-92549133D01*
X169645227Y-93684815D01*
X168891193Y-94864441D01*
X168245143Y-95858746D01*
X168163343Y-95982683D01*
X167673206Y-96745954D01*
X167327426Y-97328148D01*
X167203967Y-97593920D01*
X167340029Y-97857687D01*
X167718380Y-98493345D01*
X168294269Y-99428237D01*
X169022944Y-100589703D01*
X169849801Y-101889692D01*
X170685342Y-103202744D01*
X171412413Y-104359941D01*
X171986294Y-105288905D01*
X172362269Y-105917257D01*
X172495634Y-106172152D01*
X172246005Y-106218378D01*
X171556594Y-106249533D01*
X170516613Y-106263993D01*
X169215278Y-106260133D01*
X168328446Y-106248040D01*
X164161259Y-106175175D01*
X164127495Y-106038568D01*
X162571091Y-106038568D01*
X162513607Y-106268661D01*
X162324790Y-106307467D01*
X161961934Y-106246109D01*
X161912300Y-106190790D01*
X162106180Y-105943824D01*
X162455040Y-105938320D01*
X162571091Y-106038568D01*
X164127495Y-106038568D01*
X163927727Y-105230346D01*
X163900003Y-105043316D01*
X161813315Y-105043316D01*
X161505894Y-105478809D01*
X161205194Y-105710132D01*
X159947674Y-106487109D01*
X158652662Y-107108524D01*
X157811259Y-107397831D01*
X157020526Y-107507303D01*
X155906138Y-107541753D01*
X154641664Y-107509349D01*
X153400671Y-107418262D01*
X152356731Y-107276660D01*
X151725842Y-107111426D01*
X151211557Y-106876879D01*
X151147931Y-106729742D01*
X151492103Y-106566495D01*
X151499095Y-106563801D01*
X152310480Y-106004852D01*
X152766934Y-105138273D01*
X152889146Y-104029164D01*
X152850128Y-103766811D01*
X151032898Y-103766811D01*
X150913066Y-104531693D01*
X150464312Y-104933236D01*
X149703527Y-104944071D01*
X148647604Y-104536830D01*
X148309504Y-104348950D01*
X146956283Y-103258193D01*
X145963850Y-101784670D01*
X145625206Y-100972663D01*
X145315384Y-99986166D01*
X145250158Y-99453156D01*
X145435140Y-99354993D01*
X145875943Y-99673036D01*
X145985632Y-99775674D01*
X146541432Y-100235718D01*
X146979775Y-100476387D01*
X147043966Y-100486634D01*
X147321560Y-100291732D01*
X147325622Y-99800581D01*
X147081644Y-99153512D01*
X146698759Y-98586298D01*
X146268366Y-97983606D01*
X146045760Y-97493720D01*
X146037301Y-97423625D01*
X146182058Y-97090786D01*
X146572826Y-97126055D01*
X147144342Y-97469606D01*
X147831348Y-98061611D01*
X148568583Y-98842243D01*
X149290789Y-99751675D01*
X149932704Y-100730080D01*
X150218227Y-101256498D01*
X150806916Y-102665956D01*
X151032898Y-103766811D01*
X152850128Y-103766811D01*
X152697805Y-102742623D01*
X152213600Y-101343751D01*
X151457222Y-99897645D01*
X150449358Y-98469405D01*
X149210700Y-97124129D01*
X148229531Y-96276146D01*
X147400755Y-95726998D01*
X146566576Y-95327767D01*
X146186999Y-95217813D01*
X145298657Y-95062675D01*
X145823448Y-93661048D01*
X146434726Y-92466807D01*
X147351229Y-91219743D01*
X147714124Y-90814709D01*
X149080009Y-89369997D01*
X150824294Y-90261111D01*
X152006259Y-90783335D01*
X153317955Y-91241339D01*
X154293538Y-91495092D01*
X156018498Y-91837960D01*
X157823695Y-95302401D01*
X158515629Y-96635011D01*
X158980063Y-97553923D01*
X159235087Y-98114160D01*
X159298791Y-98370749D01*
X159189265Y-98378715D01*
X158924600Y-98193082D01*
X158720075Y-98028898D01*
X157619665Y-97188220D01*
X156524700Y-96442592D01*
X155562751Y-95873035D01*
X154861390Y-95560572D01*
X154812303Y-95547040D01*
X154137297Y-95582605D01*
X153656910Y-95962991D01*
X153519540Y-96550729D01*
X153555367Y-96711391D01*
X153795212Y-97182553D01*
X154260344Y-97904999D01*
X154803241Y-98659123D01*
X155628734Y-99849844D01*
X156304000Y-101018403D01*
X156799396Y-102086866D01*
X157085280Y-102977302D01*
X157132010Y-103611780D01*
X156909944Y-103912367D01*
X156806622Y-103926217D01*
X156412808Y-103726923D01*
X155799315Y-103190045D01*
X155056138Y-102407089D01*
X154273274Y-101469559D01*
X153879149Y-100949654D01*
X153294441Y-100282091D01*
X152816862Y-99971018D01*
X152517865Y-100031242D01*
X152468899Y-100477573D01*
X152507615Y-100665400D01*
X152857971Y-101514217D01*
X153486122Y-102564699D01*
X154281334Y-103659259D01*
X155132874Y-104640308D01*
X155637811Y-105120094D01*
X156678528Y-105813569D01*
X157625197Y-106063351D01*
X158416369Y-105864070D01*
X158879586Y-105403305D01*
X159145065Y-104707690D01*
X159117999Y-103821230D01*
X158784104Y-102681077D01*
X158129092Y-101224382D01*
X157773794Y-100538656D01*
X157244127Y-99527248D01*
X156953050Y-98907597D01*
X156879680Y-98610272D01*
X157003136Y-98565843D01*
X157206951Y-98653931D01*
X157939915Y-99189805D01*
X158817534Y-100062939D01*
X159737411Y-101142638D01*
X160597148Y-102298206D01*
X161294348Y-103398947D01*
X161726614Y-104314165D01*
X161779019Y-104489534D01*
X161813315Y-105043316D01*
X163900003Y-105043316D01*
X163827055Y-104551211D01*
X163962966Y-103966733D01*
X164380458Y-103245971D01*
X164921451Y-102299776D01*
X165405452Y-101252263D01*
X165496018Y-101015800D01*
X165770982Y-99841302D01*
X165908189Y-98361357D01*
X165907923Y-97576217D01*
X165208149Y-97576217D01*
X165194157Y-98801729D01*
X165124942Y-99681249D01*
X164962232Y-100397684D01*
X164667750Y-101133936D01*
X164311811Y-101859645D01*
X163413990Y-103629531D01*
X162085952Y-100536728D01*
X161423066Y-99037412D01*
X160674770Y-97414856D01*
X159945491Y-95892406D01*
X159477571Y-94957885D01*
X158963663Y-93927221D01*
X158573042Y-93080018D01*
X158350971Y-92518703D01*
X158323278Y-92345795D01*
X158622991Y-92311125D01*
X159335632Y-92315503D01*
X160346598Y-92356362D01*
X161266100Y-92411738D01*
X164082873Y-92603730D01*
X164644770Y-93833202D01*
X164936020Y-94599237D01*
X165110250Y-95440396D01*
X165192256Y-96521425D01*
X165208149Y-97576217D01*
X165907923Y-97576217D01*
X165907653Y-96780388D01*
X165769384Y-95302822D01*
X165495618Y-94139215D01*
X165246162Y-93304611D01*
X165236743Y-92736410D01*
X165376350Y-92371126D01*
X165572300Y-91648665D01*
X165320333Y-91152335D01*
X164661001Y-90959136D01*
X164632584Y-90958816D01*
X163939005Y-90738243D01*
X162576663Y-90738243D01*
X162296619Y-90746585D01*
X161619300Y-90702540D01*
X160672576Y-90618858D01*
X159584315Y-90508288D01*
X158482386Y-90383579D01*
X157494657Y-90257479D01*
X156955820Y-90177820D01*
X156811455Y-89958789D01*
X156752977Y-89850663D01*
X154754920Y-89850663D01*
X153133127Y-89359623D01*
X152382009Y-89109550D01*
X148203005Y-89109550D01*
X147002083Y-90445264D01*
X145800020Y-92146942D01*
X144932248Y-94138364D01*
X144443115Y-96268460D01*
X144376970Y-98386156D01*
X144462139Y-99097571D01*
X144596069Y-99924198D01*
X144687134Y-100503313D01*
X144712851Y-100685071D01*
X144507986Y-100705072D01*
X144383655Y-100685071D01*
X144115397Y-100862244D01*
X143969774Y-101340641D01*
X143994098Y-101728587D01*
X144196069Y-102171281D01*
X144634918Y-102752374D01*
X145369876Y-103555521D01*
X145983666Y-104184912D01*
X148080709Y-106307467D01*
X143090255Y-106307467D01*
X141530862Y-106298752D01*
X140170617Y-106274496D01*
X139091079Y-106237531D01*
X138373808Y-106190688D01*
X138100363Y-106136799D01*
X138099800Y-106134187D01*
X138237372Y-105857225D01*
X138611104Y-105235336D01*
X139162520Y-104363150D01*
X139775700Y-103422208D01*
X140902324Y-101713600D01*
X141769416Y-100392291D01*
X142410344Y-99404872D01*
X142858476Y-98697929D01*
X143147178Y-98218051D01*
X143309818Y-97911826D01*
X143379764Y-97725841D01*
X143391467Y-97634359D01*
X143252738Y-97286004D01*
X142888408Y-96641363D01*
X142376266Y-95837711D01*
X142357474Y-95809661D01*
X141818944Y-94997322D01*
X141146202Y-93968246D01*
X140410260Y-92832776D01*
X139682129Y-91701255D01*
X139032823Y-90684027D01*
X138533351Y-89891434D01*
X138258424Y-89440279D01*
X138297922Y-89321570D01*
X138607735Y-89233226D01*
X139242147Y-89171568D01*
X140255444Y-89132914D01*
X141701911Y-89113583D01*
X143135788Y-89109550D01*
X148203005Y-89109550D01*
X152382009Y-89109550D01*
X152247585Y-89064796D01*
X151560945Y-88787352D01*
X151253041Y-88610291D01*
X151282835Y-88343708D01*
X151815337Y-88012543D01*
X151987919Y-87937024D01*
X152638316Y-87676365D01*
X153049723Y-87532158D01*
X153099970Y-87522050D01*
X153435719Y-87737542D01*
X153886156Y-88291210D01*
X154330550Y-89030023D01*
X154754920Y-89850663D01*
X156752977Y-89850663D01*
X156522805Y-89425076D01*
X156172317Y-88740132D01*
X155842439Y-88067405D01*
X155615617Y-87570347D01*
X155562300Y-87415189D01*
X155786797Y-87324336D01*
X156382576Y-87406875D01*
X157233074Y-87631207D01*
X158221724Y-87965731D01*
X159231962Y-88378847D01*
X159398759Y-88455223D01*
X160442122Y-88989677D01*
X161372570Y-89552186D01*
X162098109Y-90076661D01*
X162526746Y-90497015D01*
X162576663Y-90738243D01*
X163939005Y-90738243D01*
X163804092Y-90695338D01*
X162999620Y-90032774D01*
X162102565Y-89109550D01*
X172556493Y-89109550D01*
X173378237Y-89109550D01*
X173840856Y-88315800D01*
X162007892Y-88315800D01*
X161950110Y-88237722D01*
X161077536Y-88237722D01*
X159532121Y-87613502D01*
X158361449Y-87227260D01*
X157062166Y-86923923D01*
X156377628Y-86821099D01*
X155556520Y-86697836D01*
X152913525Y-86697836D01*
X152690539Y-86886959D01*
X152139634Y-87149290D01*
X151430735Y-87423305D01*
X150733764Y-87647485D01*
X150218647Y-87760306D01*
X150053203Y-87733427D01*
X150127708Y-87393351D01*
X150261015Y-87200486D01*
X150600801Y-86770419D01*
X151070205Y-86137170D01*
X151177187Y-85988415D01*
X151800407Y-85116239D01*
X152358437Y-85825659D01*
X152735242Y-86348863D01*
X152911665Y-86680955D01*
X152913525Y-86697836D01*
X155556520Y-86697836D01*
X155534650Y-86694553D01*
X154952115Y-86533632D01*
X154768550Y-86395328D01*
X154622205Y-86058925D01*
X154242470Y-85448194D01*
X153820120Y-84845717D01*
X153675248Y-84648361D01*
X151182641Y-84648361D01*
X150974938Y-85071126D01*
X150490832Y-85776725D01*
X150386142Y-85922752D01*
X149378241Y-87325678D01*
X148898396Y-86733094D01*
X148535344Y-86049045D01*
X148418550Y-85463051D01*
X148634080Y-84610623D01*
X149187901Y-84045162D01*
X149940867Y-83838832D01*
X150753828Y-84063797D01*
X150914061Y-84168855D01*
X151150247Y-84387810D01*
X151182641Y-84648361D01*
X153675248Y-84648361D01*
X152871689Y-83553695D01*
X153649544Y-82561310D01*
X154192744Y-81826600D01*
X154633258Y-81159847D01*
X154739576Y-80973613D01*
X155041024Y-80525719D01*
X155240880Y-80383805D01*
X155469443Y-80590162D01*
X155900565Y-81130590D01*
X156448034Y-81895734D01*
X156544554Y-82037451D01*
X157207345Y-82991941D01*
X158053772Y-84174940D01*
X158945877Y-85394726D01*
X159368317Y-85961657D01*
X161077536Y-88237722D01*
X161950110Y-88237722D01*
X160686195Y-86529863D01*
X159980789Y-85567164D01*
X159094574Y-84343887D01*
X158151669Y-83031932D01*
X157438454Y-82031946D01*
X156691660Y-81003313D01*
X156043965Y-80153834D01*
X155560526Y-79565984D01*
X155306500Y-79322241D01*
X155295997Y-79319967D01*
X155054109Y-79521906D01*
G37*
X155054109Y-79521906D02*
X154600238Y-80059247D01*
X154019172Y-80829278D01*
X153821731Y-81105904D01*
X153232968Y-81940442D01*
X152769890Y-82594192D01*
X152509656Y-82958317D01*
X152481984Y-82995691D01*
X152243969Y-82941400D01*
X152022462Y-82786138D01*
X151005533Y-82254200D01*
X149847432Y-82126382D01*
X148708589Y-82381635D01*
X147749432Y-82998911D01*
X147418495Y-83390184D01*
X146820654Y-84513516D01*
X146685234Y-85560594D01*
X147001611Y-86692322D01*
X147176198Y-87059029D01*
X147817412Y-88315800D01*
X142297148Y-88315800D01*
X140652638Y-88321478D01*
X139203268Y-88337347D01*
X138026587Y-88361655D01*
X137200142Y-88392653D01*
X136801484Y-88428593D01*
X136776884Y-88440356D01*
X136911999Y-88712317D01*
X137257876Y-89272712D01*
X137536903Y-89697127D01*
X137933353Y-90295589D01*
X138517322Y-91186856D01*
X139224431Y-92271618D01*
X139990302Y-93450565D01*
X140750557Y-94624385D01*
X141440818Y-95693770D01*
X141996707Y-96559410D01*
X142353845Y-97121993D01*
X142427747Y-97241782D01*
X142474522Y-97442434D01*
X142403657Y-97760046D01*
X142185956Y-98246428D01*
X141792222Y-98953384D01*
X141193259Y-99932721D01*
X140359868Y-101236247D01*
X139262852Y-102915767D01*
X139033330Y-103264759D01*
X136769481Y-106704342D01*
X142660161Y-106779716D01*
X148550842Y-106855090D01*
X149328509Y-107970341D01*
X150069311Y-109014594D01*
X151121145Y-110468517D01*
X152486984Y-112336196D01*
X154042213Y-114448843D01*
X155266479Y-116107927D01*
X155937803Y-115242593D01*
X156352530Y-114692596D01*
X156989576Y-113829443D01*
X157763093Y-112770153D01*
X158587233Y-111631744D01*
X158610732Y-111599133D01*
X159442127Y-110445829D01*
X160230620Y-109353154D01*
X160887776Y-108443592D01*
X161325162Y-107839622D01*
X161328465Y-107835075D01*
X162044592Y-106849142D01*
X167928445Y-106842888D01*
X173812298Y-106836633D01*
X173792929Y-106805592D01*
X161118550Y-106805592D01*
X160968112Y-107080815D01*
X160552426Y-107702083D01*
X159924937Y-108593005D01*
X159139090Y-109677188D01*
X158579596Y-110434690D01*
X157698193Y-111627438D01*
X156917483Y-112698513D01*
X156297786Y-113564025D01*
X155899427Y-114140086D01*
X155792162Y-114311113D01*
X155502816Y-114690450D01*
X155185473Y-114679725D01*
X154758415Y-114247378D01*
X154422031Y-113781946D01*
X153081039Y-111875525D01*
X151555295Y-109784793D01*
X150914900Y-108927590D01*
X150341125Y-108156059D01*
X149888421Y-107531040D01*
X149662651Y-107199945D01*
X149791785Y-107142074D01*
X150297902Y-107270502D01*
X151074057Y-107557447D01*
X151135052Y-107582469D01*
X153344475Y-108225632D01*
X155608678Y-108383373D01*
X157833034Y-108060898D01*
X159922916Y-107263412D01*
X160258655Y-107080609D01*
X160806843Y-106817613D01*
X161102084Y-106773002D01*
X161118550Y-106805592D01*
X173792929Y-106805592D01*
X172823237Y-105251606D01*
X172290065Y-104402220D01*
X171566330Y-103256156D01*
X170746442Y-101962619D01*
X169924809Y-100670810D01*
X169912625Y-100651692D01*
X169011395Y-99175744D01*
X168436606Y-98079526D01*
X168178202Y-97334372D01*
X168226125Y-96911617D01*
X168555191Y-96782467D01*
X168784678Y-96580195D01*
X168791467Y-96517121D01*
X168930102Y-96205344D01*
X169307992Y-95549818D01*
X169868119Y-94645239D01*
X170553464Y-93586309D01*
X170583682Y-93540558D01*
X171363739Y-92347970D01*
X172112364Y-91181462D01*
X172737712Y-90185384D01*
X173108377Y-89572571D01*
X173378237Y-89109550D01*
X172556493Y-89109550D01*
X172077421Y-89837154D01*
X171715556Y-90398615D01*
X171174183Y-91252409D01*
X170552860Y-92241273D01*
X170360534Y-92549133D01*
X169645227Y-93684815D01*
X168891193Y-94864441D01*
X168245143Y-95858746D01*
X168163343Y-95982683D01*
X167673206Y-96745954D01*
X167327426Y-97328148D01*
X167203967Y-97593920D01*
X167340029Y-97857687D01*
X167718380Y-98493345D01*
X168294269Y-99428237D01*
X169022944Y-100589703D01*
X169849801Y-101889692D01*
X170685342Y-103202744D01*
X171412413Y-104359941D01*
X171986294Y-105288905D01*
X172362269Y-105917257D01*
X172495634Y-106172152D01*
X172246005Y-106218378D01*
X171556594Y-106249533D01*
X170516613Y-106263993D01*
X169215278Y-106260133D01*
X168328446Y-106248040D01*
X164161259Y-106175175D01*
X164127495Y-106038568D01*
X162571091Y-106038568D01*
X162513607Y-106268661D01*
X162324790Y-106307467D01*
X161961934Y-106246109D01*
X161912300Y-106190790D01*
X162106180Y-105943824D01*
X162455040Y-105938320D01*
X162571091Y-106038568D01*
X164127495Y-106038568D01*
X163927727Y-105230346D01*
X163900003Y-105043316D01*
X161813315Y-105043316D01*
X161505894Y-105478809D01*
X161205194Y-105710132D01*
X159947674Y-106487109D01*
X158652662Y-107108524D01*
X157811259Y-107397831D01*
X157020526Y-107507303D01*
X155906138Y-107541753D01*
X154641664Y-107509349D01*
X153400671Y-107418262D01*
X152356731Y-107276660D01*
X151725842Y-107111426D01*
X151211557Y-106876879D01*
X151147931Y-106729742D01*
X151492103Y-106566495D01*
X151499095Y-106563801D01*
X152310480Y-106004852D01*
X152766934Y-105138273D01*
X152889146Y-104029164D01*
X152850128Y-103766811D01*
X151032898Y-103766811D01*
X150913066Y-104531693D01*
X150464312Y-104933236D01*
X149703527Y-104944071D01*
X148647604Y-104536830D01*
X148309504Y-104348950D01*
X146956283Y-103258193D01*
X145963850Y-101784670D01*
X145625206Y-100972663D01*
X145315384Y-99986166D01*
X145250158Y-99453156D01*
X145435140Y-99354993D01*
X145875943Y-99673036D01*
X145985632Y-99775674D01*
X146541432Y-100235718D01*
X146979775Y-100476387D01*
X147043966Y-100486634D01*
X147321560Y-100291732D01*
X147325622Y-99800581D01*
X147081644Y-99153512D01*
X146698759Y-98586298D01*
X146268366Y-97983606D01*
X146045760Y-97493720D01*
X146037301Y-97423625D01*
X146182058Y-97090786D01*
X146572826Y-97126055D01*
X147144342Y-97469606D01*
X147831348Y-98061611D01*
X148568583Y-98842243D01*
X149290789Y-99751675D01*
X149932704Y-100730080D01*
X150218227Y-101256498D01*
X150806916Y-102665956D01*
X151032898Y-103766811D01*
X152850128Y-103766811D01*
X152697805Y-102742623D01*
X152213600Y-101343751D01*
X151457222Y-99897645D01*
X150449358Y-98469405D01*
X149210700Y-97124129D01*
X148229531Y-96276146D01*
X147400755Y-95726998D01*
X146566576Y-95327767D01*
X146186999Y-95217813D01*
X145298657Y-95062675D01*
X145823448Y-93661048D01*
X146434726Y-92466807D01*
X147351229Y-91219743D01*
X147714124Y-90814709D01*
X149080009Y-89369997D01*
X150824294Y-90261111D01*
X152006259Y-90783335D01*
X153317955Y-91241339D01*
X154293538Y-91495092D01*
X156018498Y-91837960D01*
X157823695Y-95302401D01*
X158515629Y-96635011D01*
X158980063Y-97553923D01*
X159235087Y-98114160D01*
X159298791Y-98370749D01*
X159189265Y-98378715D01*
X158924600Y-98193082D01*
X158720075Y-98028898D01*
X157619665Y-97188220D01*
X156524700Y-96442592D01*
X155562751Y-95873035D01*
X154861390Y-95560572D01*
X154812303Y-95547040D01*
X154137297Y-95582605D01*
X153656910Y-95962991D01*
X153519540Y-96550729D01*
X153555367Y-96711391D01*
X153795212Y-97182553D01*
X154260344Y-97904999D01*
X154803241Y-98659123D01*
X155628734Y-99849844D01*
X156304000Y-101018403D01*
X156799396Y-102086866D01*
X157085280Y-102977302D01*
X157132010Y-103611780D01*
X156909944Y-103912367D01*
X156806622Y-103926217D01*
X156412808Y-103726923D01*
X155799315Y-103190045D01*
X155056138Y-102407089D01*
X154273274Y-101469559D01*
X153879149Y-100949654D01*
X153294441Y-100282091D01*
X152816862Y-99971018D01*
X152517865Y-100031242D01*
X152468899Y-100477573D01*
X152507615Y-100665400D01*
X152857971Y-101514217D01*
X153486122Y-102564699D01*
X154281334Y-103659259D01*
X155132874Y-104640308D01*
X155637811Y-105120094D01*
X156678528Y-105813569D01*
X157625197Y-106063351D01*
X158416369Y-105864070D01*
X158879586Y-105403305D01*
X159145065Y-104707690D01*
X159117999Y-103821230D01*
X158784104Y-102681077D01*
X158129092Y-101224382D01*
X157773794Y-100538656D01*
X157244127Y-99527248D01*
X156953050Y-98907597D01*
X156879680Y-98610272D01*
X157003136Y-98565843D01*
X157206951Y-98653931D01*
X157939915Y-99189805D01*
X158817534Y-100062939D01*
X159737411Y-101142638D01*
X160597148Y-102298206D01*
X161294348Y-103398947D01*
X161726614Y-104314165D01*
X161779019Y-104489534D01*
X161813315Y-105043316D01*
X163900003Y-105043316D01*
X163827055Y-104551211D01*
X163962966Y-103966733D01*
X164380458Y-103245971D01*
X164921451Y-102299776D01*
X165405452Y-101252263D01*
X165496018Y-101015800D01*
X165770982Y-99841302D01*
X165908189Y-98361357D01*
X165907923Y-97576217D01*
X165208149Y-97576217D01*
X165194157Y-98801729D01*
X165124942Y-99681249D01*
X164962232Y-100397684D01*
X164667750Y-101133936D01*
X164311811Y-101859645D01*
X163413990Y-103629531D01*
X162085952Y-100536728D01*
X161423066Y-99037412D01*
X160674770Y-97414856D01*
X159945491Y-95892406D01*
X159477571Y-94957885D01*
X158963663Y-93927221D01*
X158573042Y-93080018D01*
X158350971Y-92518703D01*
X158323278Y-92345795D01*
X158622991Y-92311125D01*
X159335632Y-92315503D01*
X160346598Y-92356362D01*
X161266100Y-92411738D01*
X164082873Y-92603730D01*
X164644770Y-93833202D01*
X164936020Y-94599237D01*
X165110250Y-95440396D01*
X165192256Y-96521425D01*
X165208149Y-97576217D01*
X165907923Y-97576217D01*
X165907653Y-96780388D01*
X165769384Y-95302822D01*
X165495618Y-94139215D01*
X165246162Y-93304611D01*
X165236743Y-92736410D01*
X165376350Y-92371126D01*
X165572300Y-91648665D01*
X165320333Y-91152335D01*
X164661001Y-90959136D01*
X164632584Y-90958816D01*
X163939005Y-90738243D01*
X162576663Y-90738243D01*
X162296619Y-90746585D01*
X161619300Y-90702540D01*
X160672576Y-90618858D01*
X159584315Y-90508288D01*
X158482386Y-90383579D01*
X157494657Y-90257479D01*
X156955820Y-90177820D01*
X156811455Y-89958789D01*
X156752977Y-89850663D01*
X154754920Y-89850663D01*
X153133127Y-89359623D01*
X152382009Y-89109550D01*
X148203005Y-89109550D01*
X147002083Y-90445264D01*
X145800020Y-92146942D01*
X144932248Y-94138364D01*
X144443115Y-96268460D01*
X144376970Y-98386156D01*
X144462139Y-99097571D01*
X144596069Y-99924198D01*
X144687134Y-100503313D01*
X144712851Y-100685071D01*
X144507986Y-100705072D01*
X144383655Y-100685071D01*
X144115397Y-100862244D01*
X143969774Y-101340641D01*
X143994098Y-101728587D01*
X144196069Y-102171281D01*
X144634918Y-102752374D01*
X145369876Y-103555521D01*
X145983666Y-104184912D01*
X148080709Y-106307467D01*
X143090255Y-106307467D01*
X141530862Y-106298752D01*
X140170617Y-106274496D01*
X139091079Y-106237531D01*
X138373808Y-106190688D01*
X138100363Y-106136799D01*
X138099800Y-106134187D01*
X138237372Y-105857225D01*
X138611104Y-105235336D01*
X139162520Y-104363150D01*
X139775700Y-103422208D01*
X140902324Y-101713600D01*
X141769416Y-100392291D01*
X142410344Y-99404872D01*
X142858476Y-98697929D01*
X143147178Y-98218051D01*
X143309818Y-97911826D01*
X143379764Y-97725841D01*
X143391467Y-97634359D01*
X143252738Y-97286004D01*
X142888408Y-96641363D01*
X142376266Y-95837711D01*
X142357474Y-95809661D01*
X141818944Y-94997322D01*
X141146202Y-93968246D01*
X140410260Y-92832776D01*
X139682129Y-91701255D01*
X139032823Y-90684027D01*
X138533351Y-89891434D01*
X138258424Y-89440279D01*
X138297922Y-89321570D01*
X138607735Y-89233226D01*
X139242147Y-89171568D01*
X140255444Y-89132914D01*
X141701911Y-89113583D01*
X143135788Y-89109550D01*
X148203005Y-89109550D01*
X152382009Y-89109550D01*
X152247585Y-89064796D01*
X151560945Y-88787352D01*
X151253041Y-88610291D01*
X151282835Y-88343708D01*
X151815337Y-88012543D01*
X151987919Y-87937024D01*
X152638316Y-87676365D01*
X153049723Y-87532158D01*
X153099970Y-87522050D01*
X153435719Y-87737542D01*
X153886156Y-88291210D01*
X154330550Y-89030023D01*
X154754920Y-89850663D01*
X156752977Y-89850663D01*
X156522805Y-89425076D01*
X156172317Y-88740132D01*
X155842439Y-88067405D01*
X155615617Y-87570347D01*
X155562300Y-87415189D01*
X155786797Y-87324336D01*
X156382576Y-87406875D01*
X157233074Y-87631207D01*
X158221724Y-87965731D01*
X159231962Y-88378847D01*
X159398759Y-88455223D01*
X160442122Y-88989677D01*
X161372570Y-89552186D01*
X162098109Y-90076661D01*
X162526746Y-90497015D01*
X162576663Y-90738243D01*
X163939005Y-90738243D01*
X163804092Y-90695338D01*
X162999620Y-90032774D01*
X162102565Y-89109550D01*
X172556493Y-89109550D01*
X173378237Y-89109550D01*
X173840856Y-88315800D01*
X162007892Y-88315800D01*
X161950110Y-88237722D01*
X161077536Y-88237722D01*
X159532121Y-87613502D01*
X158361449Y-87227260D01*
X157062166Y-86923923D01*
X156377628Y-86821099D01*
X155556520Y-86697836D01*
X152913525Y-86697836D01*
X152690539Y-86886959D01*
X152139634Y-87149290D01*
X151430735Y-87423305D01*
X150733764Y-87647485D01*
X150218647Y-87760306D01*
X150053203Y-87733427D01*
X150127708Y-87393351D01*
X150261015Y-87200486D01*
X150600801Y-86770419D01*
X151070205Y-86137170D01*
X151177187Y-85988415D01*
X151800407Y-85116239D01*
X152358437Y-85825659D01*
X152735242Y-86348863D01*
X152911665Y-86680955D01*
X152913525Y-86697836D01*
X155556520Y-86697836D01*
X155534650Y-86694553D01*
X154952115Y-86533632D01*
X154768550Y-86395328D01*
X154622205Y-86058925D01*
X154242470Y-85448194D01*
X153820120Y-84845717D01*
X153675248Y-84648361D01*
X151182641Y-84648361D01*
X150974938Y-85071126D01*
X150490832Y-85776725D01*
X150386142Y-85922752D01*
X149378241Y-87325678D01*
X148898396Y-86733094D01*
X148535344Y-86049045D01*
X148418550Y-85463051D01*
X148634080Y-84610623D01*
X149187901Y-84045162D01*
X149940867Y-83838832D01*
X150753828Y-84063797D01*
X150914061Y-84168855D01*
X151150247Y-84387810D01*
X151182641Y-84648361D01*
X153675248Y-84648361D01*
X152871689Y-83553695D01*
X153649544Y-82561310D01*
X154192744Y-81826600D01*
X154633258Y-81159847D01*
X154739576Y-80973613D01*
X155041024Y-80525719D01*
X155240880Y-80383805D01*
X155469443Y-80590162D01*
X155900565Y-81130590D01*
X156448034Y-81895734D01*
X156544554Y-82037451D01*
X157207345Y-82991941D01*
X158053772Y-84174940D01*
X158945877Y-85394726D01*
X159368317Y-85961657D01*
X161077536Y-88237722D01*
X161950110Y-88237722D01*
X160686195Y-86529863D01*
X159980789Y-85567164D01*
X159094574Y-84343887D01*
X158151669Y-83031932D01*
X157438454Y-82031946D01*
X156691660Y-81003313D01*
X156043965Y-80153834D01*
X155560526Y-79565984D01*
X155306500Y-79322241D01*
X155295997Y-79319967D01*
X155054109Y-79521906D01*
%TD*%
M02*
