%TF.GenerationSoftware,KiCad,Pcbnew,(5.1.9)-1*%
%TF.CreationDate,2021-05-30T19:53:41+08:00*%
%TF.ProjectId,Tuya_RGB,54757961-5f52-4474-922e-6b696361645f,rev?*%
%TF.SameCoordinates,Original*%
%TF.FileFunction,Legend,Top*%
%TF.FilePolarity,Positive*%
%FSLAX46Y46*%
G04 Gerber Fmt 4.6, Leading zero omitted, Abs format (unit mm)*
G04 Created by KiCad (PCBNEW (5.1.9)-1) date 2021-05-30 19:53:41*
%MOMM*%
%LPD*%
G01*
G04 APERTURE LIST*
%ADD10C,0.150000*%
%ADD11C,0.120000*%
%ADD12C,0.100000*%
G04 APERTURE END LIST*
D10*
X160710714Y-84907380D02*
X160710714Y-83907380D01*
X161091666Y-83907380D01*
X161186904Y-83955000D01*
X161234523Y-84002619D01*
X161282142Y-84097857D01*
X161282142Y-84240714D01*
X161234523Y-84335952D01*
X161186904Y-84383571D01*
X161091666Y-84431190D01*
X160710714Y-84431190D01*
X161663095Y-84002619D02*
X161710714Y-83955000D01*
X161805952Y-83907380D01*
X162044047Y-83907380D01*
X162139285Y-83955000D01*
X162186904Y-84002619D01*
X162234523Y-84097857D01*
X162234523Y-84193095D01*
X162186904Y-84335952D01*
X161615476Y-84907380D01*
X162234523Y-84907380D01*
X162615476Y-84002619D02*
X162663095Y-83955000D01*
X162758333Y-83907380D01*
X162996428Y-83907380D01*
X163091666Y-83955000D01*
X163139285Y-84002619D01*
X163186904Y-84097857D01*
X163186904Y-84193095D01*
X163139285Y-84335952D01*
X162567857Y-84907380D01*
X163186904Y-84907380D01*
X161988476Y-78827380D02*
X161798000Y-78827380D01*
X161702761Y-78875000D01*
X161655142Y-78922619D01*
X161559904Y-79065476D01*
X161512285Y-79255952D01*
X161512285Y-79636904D01*
X161559904Y-79732142D01*
X161607523Y-79779761D01*
X161702761Y-79827380D01*
X161893238Y-79827380D01*
X161988476Y-79779761D01*
X162036095Y-79732142D01*
X162083714Y-79636904D01*
X162083714Y-79398809D01*
X162036095Y-79303571D01*
X161988476Y-79255952D01*
X161893238Y-79208333D01*
X161702761Y-79208333D01*
X161607523Y-79255952D01*
X161559904Y-79303571D01*
X161512285Y-79398809D01*
X167600380Y-107211190D02*
X168600380Y-106973095D01*
X167886095Y-106782619D01*
X168600380Y-106592142D01*
X167600380Y-106354047D01*
X168600380Y-105973095D02*
X167600380Y-105973095D01*
X168076571Y-105163571D02*
X168076571Y-105496904D01*
X168600380Y-105496904D02*
X167600380Y-105496904D01*
X167600380Y-105020714D01*
X168600380Y-104639761D02*
X167600380Y-104639761D01*
X168695619Y-104401666D02*
X168695619Y-103639761D01*
X168076571Y-103068333D02*
X168124190Y-102925476D01*
X168171809Y-102877857D01*
X168267047Y-102830238D01*
X168409904Y-102830238D01*
X168505142Y-102877857D01*
X168552761Y-102925476D01*
X168600380Y-103020714D01*
X168600380Y-103401666D01*
X167600380Y-103401666D01*
X167600380Y-103068333D01*
X167648000Y-102973095D01*
X167695619Y-102925476D01*
X167790857Y-102877857D01*
X167886095Y-102877857D01*
X167981333Y-102925476D01*
X168028952Y-102973095D01*
X168076571Y-103068333D01*
X168076571Y-103401666D01*
X168600380Y-101925476D02*
X168600380Y-102401666D01*
X167600380Y-102401666D01*
X168076571Y-101592142D02*
X168076571Y-101258809D01*
X168600380Y-101115952D02*
X168600380Y-101592142D01*
X167600380Y-101592142D01*
X167600380Y-101115952D01*
X168695619Y-100925476D02*
X168695619Y-100163571D01*
X168505142Y-99354047D02*
X168552761Y-99401666D01*
X168600380Y-99544523D01*
X168600380Y-99639761D01*
X168552761Y-99782619D01*
X168457523Y-99877857D01*
X168362285Y-99925476D01*
X168171809Y-99973095D01*
X168028952Y-99973095D01*
X167838476Y-99925476D01*
X167743238Y-99877857D01*
X167648000Y-99782619D01*
X167600380Y-99639761D01*
X167600380Y-99544523D01*
X167648000Y-99401666D01*
X167695619Y-99354047D01*
X168076571Y-98592142D02*
X168124190Y-98449285D01*
X168171809Y-98401666D01*
X168267047Y-98354047D01*
X168409904Y-98354047D01*
X168505142Y-98401666D01*
X168552761Y-98449285D01*
X168600380Y-98544523D01*
X168600380Y-98925476D01*
X167600380Y-98925476D01*
X167600380Y-98592142D01*
X167648000Y-98496904D01*
X167695619Y-98449285D01*
X167790857Y-98401666D01*
X167886095Y-98401666D01*
X167981333Y-98449285D01*
X168028952Y-98496904D01*
X168076571Y-98592142D01*
X168076571Y-98925476D01*
X167600380Y-97925476D02*
X168409904Y-97925476D01*
X168505142Y-97877857D01*
X168552761Y-97830238D01*
X168600380Y-97735000D01*
X168600380Y-97544523D01*
X168552761Y-97449285D01*
X168505142Y-97401666D01*
X168409904Y-97354047D01*
X167600380Y-97354047D01*
X116673380Y-74620380D02*
X116340047Y-74144190D01*
X116101952Y-74620380D02*
X116101952Y-73620380D01*
X116482904Y-73620380D01*
X116578142Y-73668000D01*
X116625761Y-73715619D01*
X116673380Y-73810857D01*
X116673380Y-73953714D01*
X116625761Y-74048952D01*
X116578142Y-74096571D01*
X116482904Y-74144190D01*
X116101952Y-74144190D01*
X117054333Y-74572761D02*
X117197190Y-74620380D01*
X117435285Y-74620380D01*
X117530523Y-74572761D01*
X117578142Y-74525142D01*
X117625761Y-74429904D01*
X117625761Y-74334666D01*
X117578142Y-74239428D01*
X117530523Y-74191809D01*
X117435285Y-74144190D01*
X117244809Y-74096571D01*
X117149571Y-74048952D01*
X117101952Y-74001333D01*
X117054333Y-73906095D01*
X117054333Y-73810857D01*
X117101952Y-73715619D01*
X117149571Y-73668000D01*
X117244809Y-73620380D01*
X117482904Y-73620380D01*
X117625761Y-73668000D01*
X117911476Y-73620380D02*
X118482904Y-73620380D01*
X118197190Y-74620380D02*
X118197190Y-73620380D01*
X139390380Y-120999285D02*
X139390380Y-121570714D01*
X139390380Y-121285000D02*
X138390380Y-121285000D01*
X138533238Y-121380238D01*
X138628476Y-121475476D01*
X138676095Y-121570714D01*
D11*
%TO.C,R4*%
X146201224Y-92060500D02*
X145691776Y-92060500D01*
X146201224Y-93105500D02*
X145691776Y-93105500D01*
%TO.C,R3*%
X145691776Y-94629500D02*
X146201224Y-94629500D01*
X145691776Y-93584500D02*
X146201224Y-93584500D01*
%TO.C,J2*%
X122058000Y-114145000D02*
X122058000Y-116745000D01*
X107358000Y-114145000D02*
X122058000Y-114145000D01*
X122058000Y-123345000D02*
X120158000Y-123345000D01*
X122058000Y-120645000D02*
X122058000Y-123345000D01*
X107358000Y-123345000D02*
X107358000Y-114145000D01*
X116158000Y-123345000D02*
X107358000Y-123345000D01*
X121208000Y-113945000D02*
X122258000Y-113945000D01*
X122258000Y-114995000D02*
X122258000Y-113945000D01*
%TO.C,R1*%
X138962224Y-88406500D02*
X138452776Y-88406500D01*
X138962224Y-87361500D02*
X138452776Y-87361500D01*
%TO.C,D1*%
X136196000Y-87149000D02*
X133736000Y-87149000D01*
X133736000Y-87149000D02*
X133736000Y-88619000D01*
X133736000Y-88619000D02*
X136196000Y-88619000D01*
%TO.C,Q1*%
X135488800Y-118239000D02*
X134558800Y-118239000D01*
X132328800Y-118239000D02*
X133258800Y-118239000D01*
X132328800Y-118239000D02*
X132328800Y-120399000D01*
X135488800Y-118239000D02*
X135488800Y-119699000D01*
%TO.C,J3*%
X142768000Y-116780000D02*
X142768000Y-119440000D01*
X142768000Y-116780000D02*
X137628000Y-116780000D01*
X137628000Y-116780000D02*
X137628000Y-119440000D01*
X142768000Y-119440000D02*
X137628000Y-119440000D01*
X145368000Y-119440000D02*
X144038000Y-119440000D01*
X145368000Y-118110000D02*
X145368000Y-119440000D01*
%TO.C,U3*%
X174181800Y-110357600D02*
X174181800Y-94569600D01*
X179482800Y-94569600D02*
X179482800Y-110357600D01*
X161981800Y-110357600D02*
X179482800Y-110357600D01*
X161981800Y-94569600D02*
X179482800Y-94569600D01*
X161981800Y-110357600D02*
X161981800Y-108863600D01*
X161981800Y-96063600D02*
X161981800Y-94569600D01*
X159181800Y-108863600D02*
X161981800Y-108863600D01*
X159181800Y-96063600D02*
X161981800Y-96063600D01*
X159181800Y-96063600D02*
X159181800Y-108863600D01*
D12*
G36*
X174181800Y-110357600D02*
G01*
X174181800Y-94569600D01*
X179482800Y-94569600D01*
X179482800Y-110357600D01*
X174181800Y-110357600D01*
G37*
X174181800Y-110357600D02*
X174181800Y-94569600D01*
X179482800Y-94569600D01*
X179482800Y-110357600D01*
X174181800Y-110357600D01*
D11*
%TO.C,U2*%
X133076000Y-86835000D02*
X133076000Y-85575000D01*
X133076000Y-80015000D02*
X133076000Y-81275000D01*
X129316000Y-86835000D02*
X133076000Y-86835000D01*
X127066000Y-80015000D02*
X133076000Y-80015000D01*
%TO.C,U1*%
X122242600Y-98445000D02*
X120982600Y-98445000D01*
X115422600Y-98445000D02*
X116682600Y-98445000D01*
X122242600Y-102205000D02*
X122242600Y-98445000D01*
X115422600Y-104455000D02*
X115422600Y-98445000D01*
%TO.C,SW3*%
X169025000Y-82224000D02*
X175145000Y-82224000D01*
X175145000Y-82224000D02*
X175145000Y-85924000D01*
X175145000Y-85924000D02*
X169025000Y-85924000D01*
X169025000Y-85924000D02*
X169025000Y-82224000D01*
%TO.C,SW2*%
X114186400Y-74908800D02*
X120306400Y-74908800D01*
X120306400Y-74908800D02*
X120306400Y-78608800D01*
X120306400Y-78608800D02*
X114186400Y-78608800D01*
X114186400Y-78608800D02*
X114186400Y-74908800D01*
%TO.C,SW1*%
X169025000Y-78033000D02*
X175145000Y-78033000D01*
X175145000Y-78033000D02*
X175145000Y-81733000D01*
X175145000Y-81733000D02*
X169025000Y-81733000D01*
X169025000Y-81733000D02*
X169025000Y-78033000D01*
%TO.C,R11*%
X140955500Y-114912224D02*
X140955500Y-114402776D01*
X142000500Y-114912224D02*
X142000500Y-114402776D01*
%TO.C,R10*%
X135875500Y-119277224D02*
X135875500Y-118767776D01*
X136920500Y-119277224D02*
X136920500Y-118767776D01*
%TO.C,R9*%
X130795500Y-119277224D02*
X130795500Y-118767776D01*
X131840500Y-119277224D02*
X131840500Y-118767776D01*
%TO.C,R8*%
X134351500Y-122706224D02*
X134351500Y-122196776D01*
X135396500Y-122706224D02*
X135396500Y-122196776D01*
%TO.C,R7*%
X132446500Y-122706224D02*
X132446500Y-122196776D01*
X133491500Y-122706224D02*
X133491500Y-122196776D01*
%TO.C,R6*%
X138962224Y-91708500D02*
X138452776Y-91708500D01*
X138962224Y-90663500D02*
X138452776Y-90663500D01*
%TO.C,R5*%
X138962224Y-90057500D02*
X138452776Y-90057500D01*
X138962224Y-89012500D02*
X138452776Y-89012500D01*
%TO.C,R2*%
X125298924Y-81548500D02*
X124789476Y-81548500D01*
X125298924Y-80503500D02*
X124789476Y-80503500D01*
%TO.C,J5*%
X137628000Y-109795000D02*
X137628000Y-112455000D01*
X142768000Y-109795000D02*
X137628000Y-109795000D01*
X142768000Y-112455000D02*
X137628000Y-112455000D01*
X142768000Y-109795000D02*
X142768000Y-112455000D01*
X144038000Y-109795000D02*
X145368000Y-109795000D01*
X145368000Y-109795000D02*
X145368000Y-111125000D01*
%TO.C,J4*%
X150054000Y-116879000D02*
X150054000Y-119539000D01*
X167894000Y-116879000D02*
X150054000Y-116879000D01*
X167894000Y-119539000D02*
X150054000Y-119539000D01*
X167894000Y-116879000D02*
X167894000Y-119539000D01*
X169164000Y-116879000D02*
X170494000Y-116879000D01*
X170494000Y-116879000D02*
X170494000Y-118209000D01*
%TO.C,J1*%
X115661200Y-85244400D02*
X116111200Y-85244400D01*
X116111200Y-85694400D02*
X116111200Y-85244400D01*
X115431200Y-83244400D02*
X115431200Y-83664400D01*
X113451200Y-83244400D02*
X115431200Y-83244400D01*
X111081200Y-83244400D02*
X111481200Y-83244400D01*
X111481200Y-90764400D02*
X111081200Y-90764400D01*
X115431200Y-90764400D02*
X115431200Y-90344400D01*
X113451200Y-90764400D02*
X115431200Y-90764400D01*
%TO.C,D3*%
X136196000Y-90451000D02*
X133736000Y-90451000D01*
X133736000Y-90451000D02*
X133736000Y-91921000D01*
X133736000Y-91921000D02*
X136196000Y-91921000D01*
%TO.C,D2*%
X136196000Y-88800000D02*
X133736000Y-88800000D01*
X133736000Y-88800000D02*
X133736000Y-90270000D01*
X133736000Y-90270000D02*
X136196000Y-90270000D01*
%TO.C,C12*%
X155547600Y-107132167D02*
X155547600Y-106839633D01*
X156567600Y-107132167D02*
X156567600Y-106839633D01*
%TO.C,C11*%
X166880000Y-84663233D02*
X166880000Y-84955767D01*
X165860000Y-84663233D02*
X165860000Y-84955767D01*
%TO.C,C10*%
X113794000Y-80396033D02*
X113794000Y-80688567D01*
X112774000Y-80396033D02*
X112774000Y-80688567D01*
%TO.C,C9*%
X166880000Y-80599233D02*
X166880000Y-80891767D01*
X165860000Y-80599233D02*
X165860000Y-80891767D01*
%TO.C,C8*%
X135888000Y-82696267D02*
X135888000Y-82403733D01*
X136908000Y-82696267D02*
X136908000Y-82403733D01*
%TO.C,C7*%
X118154667Y-94134400D02*
X117862133Y-94134400D01*
X118154667Y-93114400D02*
X117862133Y-93114400D01*
%TO.C,C6*%
X120441767Y-106047000D02*
X120149233Y-106047000D01*
X120441767Y-105027000D02*
X120149233Y-105027000D01*
%TO.C,C5*%
X126341600Y-86466633D02*
X126341600Y-86759167D01*
X125321600Y-86466633D02*
X125321600Y-86759167D01*
%TO.C,C4*%
X137412000Y-82696267D02*
X137412000Y-82403733D01*
X138432000Y-82696267D02*
X138432000Y-82403733D01*
%TO.C,C3*%
X118154667Y-95658400D02*
X117862133Y-95658400D01*
X118154667Y-94638400D02*
X117862133Y-94638400D01*
%TO.C,C2*%
X115048000Y-106445000D02*
X115048000Y-108795000D01*
X115048000Y-113265000D02*
X115048000Y-110915000D01*
X120803563Y-113265000D02*
X115048000Y-113265000D01*
X120803563Y-106445000D02*
X115048000Y-106445000D01*
X121868000Y-107509437D02*
X121868000Y-108795000D01*
X121868000Y-112200563D02*
X121868000Y-110915000D01*
X121868000Y-112200563D02*
X120803563Y-113265000D01*
X121868000Y-107509437D02*
X120803563Y-106445000D01*
X122895500Y-111702500D02*
X122108000Y-111702500D01*
X122501750Y-112096250D02*
X122501750Y-111308750D01*
%TO.C,C1*%
X118078200Y-91835000D02*
X120428200Y-91835000D01*
X124898200Y-91835000D02*
X122548200Y-91835000D01*
X124898200Y-86079437D02*
X124898200Y-91835000D01*
X118078200Y-86079437D02*
X118078200Y-91835000D01*
X119142637Y-85015000D02*
X120428200Y-85015000D01*
X123833763Y-85015000D02*
X122548200Y-85015000D01*
X123833763Y-85015000D02*
X124898200Y-86079437D01*
X119142637Y-85015000D02*
X118078200Y-86079437D01*
X123335700Y-83987500D02*
X123335700Y-84775000D01*
X123729450Y-84381250D02*
X122941950Y-84381250D01*
D10*
%TO.C,P1*%
X137388000Y-122275000D02*
X137388000Y-125375000D01*
X138938000Y-122275000D02*
X137388000Y-122275000D01*
X140208000Y-125095000D02*
X140208000Y-122555000D01*
X137388000Y-125375000D02*
X138938000Y-125375000D01*
X157988000Y-122555000D02*
X140208000Y-122555000D01*
X157988000Y-125095000D02*
X157988000Y-122555000D01*
X140208000Y-125095000D02*
X157988000Y-125095000D01*
%TO.C,P2*%
X160248000Y-122275000D02*
X160248000Y-125375000D01*
X161798000Y-122275000D02*
X160248000Y-122275000D01*
X163068000Y-125095000D02*
X163068000Y-122555000D01*
X160248000Y-125375000D02*
X161798000Y-125375000D01*
X175768000Y-122555000D02*
X163068000Y-122555000D01*
X175768000Y-125095000D02*
X175768000Y-122555000D01*
X163068000Y-125095000D02*
X175768000Y-125095000D01*
%TO.C,P3*%
X128244000Y-74015000D02*
X128244000Y-77115000D01*
X129794000Y-74015000D02*
X128244000Y-74015000D01*
X131064000Y-76835000D02*
X131064000Y-74295000D01*
X128244000Y-77115000D02*
X129794000Y-77115000D01*
X153924000Y-74295000D02*
X131064000Y-74295000D01*
X153924000Y-76835000D02*
X153924000Y-74295000D01*
X131064000Y-76835000D02*
X153924000Y-76835000D01*
%TO.C,P4*%
X155168000Y-74015000D02*
X155168000Y-77115000D01*
X156718000Y-74015000D02*
X155168000Y-74015000D01*
X157988000Y-76835000D02*
X157988000Y-74295000D01*
X155168000Y-77115000D02*
X156718000Y-77115000D01*
X175768000Y-74295000D02*
X157988000Y-74295000D01*
X175768000Y-76835000D02*
X175768000Y-74295000D01*
X157988000Y-76835000D02*
X175768000Y-76835000D01*
%TO.C,P5*%
X127254000Y-123825000D02*
G75*
G03*
X127254000Y-123825000I-2286000J0D01*
G01*
%TO.C,P6*%
X179324000Y-118745000D02*
G75*
G03*
X179324000Y-118745000I-2286000J0D01*
G01*
%TO.C,P7*%
X128524000Y-75565000D02*
G75*
G03*
X128524000Y-75565000I-2286000J0D01*
G01*
%TO.C,P8*%
X179324000Y-90805000D02*
G75*
G03*
X179324000Y-90805000I-2286000J0D01*
G01*
%TO.C,R4*%
X148296333Y-94559380D02*
X147963000Y-94083190D01*
X147724904Y-94559380D02*
X147724904Y-93559380D01*
X148105857Y-93559380D01*
X148201095Y-93607000D01*
X148248714Y-93654619D01*
X148296333Y-93749857D01*
X148296333Y-93892714D01*
X148248714Y-93987952D01*
X148201095Y-94035571D01*
X148105857Y-94083190D01*
X147724904Y-94083190D01*
X149153476Y-93892714D02*
X149153476Y-94559380D01*
X148915380Y-93511761D02*
X148677285Y-94226047D01*
X149296333Y-94226047D01*
%TO.C,R3*%
X148296333Y-93035380D02*
X147963000Y-92559190D01*
X147724904Y-93035380D02*
X147724904Y-92035380D01*
X148105857Y-92035380D01*
X148201095Y-92083000D01*
X148248714Y-92130619D01*
X148296333Y-92225857D01*
X148296333Y-92368714D01*
X148248714Y-92463952D01*
X148201095Y-92511571D01*
X148105857Y-92559190D01*
X147724904Y-92559190D01*
X148629666Y-92035380D02*
X149248714Y-92035380D01*
X148915380Y-92416333D01*
X149058238Y-92416333D01*
X149153476Y-92463952D01*
X149201095Y-92511571D01*
X149248714Y-92606809D01*
X149248714Y-92844904D01*
X149201095Y-92940142D01*
X149153476Y-92987761D01*
X149058238Y-93035380D01*
X148772523Y-93035380D01*
X148677285Y-92987761D01*
X148629666Y-92940142D01*
%TO.C,R1*%
X141057333Y-88336380D02*
X140724000Y-87860190D01*
X140485904Y-88336380D02*
X140485904Y-87336380D01*
X140866857Y-87336380D01*
X140962095Y-87384000D01*
X141009714Y-87431619D01*
X141057333Y-87526857D01*
X141057333Y-87669714D01*
X141009714Y-87764952D01*
X140962095Y-87812571D01*
X140866857Y-87860190D01*
X140485904Y-87860190D01*
X142009714Y-88336380D02*
X141438285Y-88336380D01*
X141724000Y-88336380D02*
X141724000Y-87336380D01*
X141628761Y-87479238D01*
X141533523Y-87574476D01*
X141438285Y-87622095D01*
%TO.C,D1*%
X132103904Y-88336380D02*
X132103904Y-87336380D01*
X132342000Y-87336380D01*
X132484857Y-87384000D01*
X132580095Y-87479238D01*
X132627714Y-87574476D01*
X132675333Y-87764952D01*
X132675333Y-87907809D01*
X132627714Y-88098285D01*
X132580095Y-88193523D01*
X132484857Y-88288761D01*
X132342000Y-88336380D01*
X132103904Y-88336380D01*
X133627714Y-88336380D02*
X133056285Y-88336380D01*
X133342000Y-88336380D02*
X133342000Y-87336380D01*
X133246761Y-87479238D01*
X133151523Y-87574476D01*
X133056285Y-87622095D01*
%TO.C,Q1*%
X133762761Y-117260619D02*
X133667523Y-117213000D01*
X133572285Y-117117761D01*
X133429428Y-116974904D01*
X133334190Y-116927285D01*
X133238952Y-116927285D01*
X133286571Y-117165380D02*
X133191333Y-117117761D01*
X133096095Y-117022523D01*
X133048476Y-116832047D01*
X133048476Y-116498714D01*
X133096095Y-116308238D01*
X133191333Y-116213000D01*
X133286571Y-116165380D01*
X133477047Y-116165380D01*
X133572285Y-116213000D01*
X133667523Y-116308238D01*
X133715142Y-116498714D01*
X133715142Y-116832047D01*
X133667523Y-117022523D01*
X133572285Y-117117761D01*
X133477047Y-117165380D01*
X133286571Y-117165380D01*
X134667523Y-117165380D02*
X134096095Y-117165380D01*
X134381809Y-117165380D02*
X134381809Y-116165380D01*
X134286571Y-116308238D01*
X134191333Y-116403476D01*
X134096095Y-116451095D01*
%TO.C,U2*%
X130404095Y-78377380D02*
X130404095Y-79186904D01*
X130451714Y-79282142D01*
X130499333Y-79329761D01*
X130594571Y-79377380D01*
X130785047Y-79377380D01*
X130880285Y-79329761D01*
X130927904Y-79282142D01*
X130975523Y-79186904D01*
X130975523Y-78377380D01*
X131404095Y-78472619D02*
X131451714Y-78425000D01*
X131546952Y-78377380D01*
X131785047Y-78377380D01*
X131880285Y-78425000D01*
X131927904Y-78472619D01*
X131975523Y-78567857D01*
X131975523Y-78663095D01*
X131927904Y-78805952D01*
X131356476Y-79377380D01*
X131975523Y-79377380D01*
%TO.C,U1*%
X113784980Y-101116904D02*
X114594504Y-101116904D01*
X114689742Y-101069285D01*
X114737361Y-101021666D01*
X114784980Y-100926428D01*
X114784980Y-100735952D01*
X114737361Y-100640714D01*
X114689742Y-100593095D01*
X114594504Y-100545476D01*
X113784980Y-100545476D01*
X114784980Y-99545476D02*
X114784980Y-100116904D01*
X114784980Y-99831190D02*
X113784980Y-99831190D01*
X113927838Y-99926428D01*
X114023076Y-100021666D01*
X114070695Y-100116904D01*
%TO.C,R11*%
X140500380Y-115300357D02*
X140024190Y-115633690D01*
X140500380Y-115871785D02*
X139500380Y-115871785D01*
X139500380Y-115490833D01*
X139548000Y-115395595D01*
X139595619Y-115347976D01*
X139690857Y-115300357D01*
X139833714Y-115300357D01*
X139928952Y-115347976D01*
X139976571Y-115395595D01*
X140024190Y-115490833D01*
X140024190Y-115871785D01*
X140500380Y-114347976D02*
X140500380Y-114919404D01*
X140500380Y-114633690D02*
X139500380Y-114633690D01*
X139643238Y-114728928D01*
X139738476Y-114824166D01*
X139786095Y-114919404D01*
X140500380Y-113395595D02*
X140500380Y-113967023D01*
X140500380Y-113681309D02*
X139500380Y-113681309D01*
X139643238Y-113776547D01*
X139738476Y-113871785D01*
X139786095Y-113967023D01*
%TO.C,R10*%
X136723380Y-116593857D02*
X136247190Y-116927190D01*
X136723380Y-117165285D02*
X135723380Y-117165285D01*
X135723380Y-116784333D01*
X135771000Y-116689095D01*
X135818619Y-116641476D01*
X135913857Y-116593857D01*
X136056714Y-116593857D01*
X136151952Y-116641476D01*
X136199571Y-116689095D01*
X136247190Y-116784333D01*
X136247190Y-117165285D01*
X136723380Y-115641476D02*
X136723380Y-116212904D01*
X136723380Y-115927190D02*
X135723380Y-115927190D01*
X135866238Y-116022428D01*
X135961476Y-116117666D01*
X136009095Y-116212904D01*
X135723380Y-115022428D02*
X135723380Y-114927190D01*
X135771000Y-114831952D01*
X135818619Y-114784333D01*
X135913857Y-114736714D01*
X136104333Y-114689095D01*
X136342428Y-114689095D01*
X136532904Y-114736714D01*
X136628142Y-114784333D01*
X136675761Y-114831952D01*
X136723380Y-114927190D01*
X136723380Y-115022428D01*
X136675761Y-115117666D01*
X136628142Y-115165285D01*
X136532904Y-115212904D01*
X136342428Y-115260523D01*
X136104333Y-115260523D01*
X135913857Y-115212904D01*
X135818619Y-115165285D01*
X135771000Y-115117666D01*
X135723380Y-115022428D01*
%TO.C,R9*%
X131770380Y-116498666D02*
X131294190Y-116832000D01*
X131770380Y-117070095D02*
X130770380Y-117070095D01*
X130770380Y-116689142D01*
X130818000Y-116593904D01*
X130865619Y-116546285D01*
X130960857Y-116498666D01*
X131103714Y-116498666D01*
X131198952Y-116546285D01*
X131246571Y-116593904D01*
X131294190Y-116689142D01*
X131294190Y-117070095D01*
X131770380Y-116022476D02*
X131770380Y-115832000D01*
X131722761Y-115736761D01*
X131675142Y-115689142D01*
X131532285Y-115593904D01*
X131341809Y-115546285D01*
X130960857Y-115546285D01*
X130865619Y-115593904D01*
X130818000Y-115641523D01*
X130770380Y-115736761D01*
X130770380Y-115927238D01*
X130818000Y-116022476D01*
X130865619Y-116070095D01*
X130960857Y-116117714D01*
X131198952Y-116117714D01*
X131294190Y-116070095D01*
X131341809Y-116022476D01*
X131389428Y-115927238D01*
X131389428Y-115736761D01*
X131341809Y-115641523D01*
X131294190Y-115593904D01*
X131198952Y-115546285D01*
%TO.C,R8*%
X135326380Y-125261666D02*
X134850190Y-125595000D01*
X135326380Y-125833095D02*
X134326380Y-125833095D01*
X134326380Y-125452142D01*
X134374000Y-125356904D01*
X134421619Y-125309285D01*
X134516857Y-125261666D01*
X134659714Y-125261666D01*
X134754952Y-125309285D01*
X134802571Y-125356904D01*
X134850190Y-125452142D01*
X134850190Y-125833095D01*
X134754952Y-124690238D02*
X134707333Y-124785476D01*
X134659714Y-124833095D01*
X134564476Y-124880714D01*
X134516857Y-124880714D01*
X134421619Y-124833095D01*
X134374000Y-124785476D01*
X134326380Y-124690238D01*
X134326380Y-124499761D01*
X134374000Y-124404523D01*
X134421619Y-124356904D01*
X134516857Y-124309285D01*
X134564476Y-124309285D01*
X134659714Y-124356904D01*
X134707333Y-124404523D01*
X134754952Y-124499761D01*
X134754952Y-124690238D01*
X134802571Y-124785476D01*
X134850190Y-124833095D01*
X134945428Y-124880714D01*
X135135904Y-124880714D01*
X135231142Y-124833095D01*
X135278761Y-124785476D01*
X135326380Y-124690238D01*
X135326380Y-124499761D01*
X135278761Y-124404523D01*
X135231142Y-124356904D01*
X135135904Y-124309285D01*
X134945428Y-124309285D01*
X134850190Y-124356904D01*
X134802571Y-124404523D01*
X134754952Y-124499761D01*
%TO.C,R7*%
X133421380Y-125261666D02*
X132945190Y-125595000D01*
X133421380Y-125833095D02*
X132421380Y-125833095D01*
X132421380Y-125452142D01*
X132469000Y-125356904D01*
X132516619Y-125309285D01*
X132611857Y-125261666D01*
X132754714Y-125261666D01*
X132849952Y-125309285D01*
X132897571Y-125356904D01*
X132945190Y-125452142D01*
X132945190Y-125833095D01*
X132421380Y-124928333D02*
X132421380Y-124261666D01*
X133421380Y-124690238D01*
%TO.C,R6*%
X141057333Y-91638380D02*
X140724000Y-91162190D01*
X140485904Y-91638380D02*
X140485904Y-90638380D01*
X140866857Y-90638380D01*
X140962095Y-90686000D01*
X141009714Y-90733619D01*
X141057333Y-90828857D01*
X141057333Y-90971714D01*
X141009714Y-91066952D01*
X140962095Y-91114571D01*
X140866857Y-91162190D01*
X140485904Y-91162190D01*
X141914476Y-90638380D02*
X141724000Y-90638380D01*
X141628761Y-90686000D01*
X141581142Y-90733619D01*
X141485904Y-90876476D01*
X141438285Y-91066952D01*
X141438285Y-91447904D01*
X141485904Y-91543142D01*
X141533523Y-91590761D01*
X141628761Y-91638380D01*
X141819238Y-91638380D01*
X141914476Y-91590761D01*
X141962095Y-91543142D01*
X142009714Y-91447904D01*
X142009714Y-91209809D01*
X141962095Y-91114571D01*
X141914476Y-91066952D01*
X141819238Y-91019333D01*
X141628761Y-91019333D01*
X141533523Y-91066952D01*
X141485904Y-91114571D01*
X141438285Y-91209809D01*
%TO.C,R5*%
X141057333Y-89987380D02*
X140724000Y-89511190D01*
X140485904Y-89987380D02*
X140485904Y-88987380D01*
X140866857Y-88987380D01*
X140962095Y-89035000D01*
X141009714Y-89082619D01*
X141057333Y-89177857D01*
X141057333Y-89320714D01*
X141009714Y-89415952D01*
X140962095Y-89463571D01*
X140866857Y-89511190D01*
X140485904Y-89511190D01*
X141962095Y-88987380D02*
X141485904Y-88987380D01*
X141438285Y-89463571D01*
X141485904Y-89415952D01*
X141581142Y-89368333D01*
X141819238Y-89368333D01*
X141914476Y-89415952D01*
X141962095Y-89463571D01*
X142009714Y-89558809D01*
X142009714Y-89796904D01*
X141962095Y-89892142D01*
X141914476Y-89939761D01*
X141819238Y-89987380D01*
X141581142Y-89987380D01*
X141485904Y-89939761D01*
X141438285Y-89892142D01*
%TO.C,R2*%
X124877533Y-82908380D02*
X124544200Y-82432190D01*
X124306104Y-82908380D02*
X124306104Y-81908380D01*
X124687057Y-81908380D01*
X124782295Y-81956000D01*
X124829914Y-82003619D01*
X124877533Y-82098857D01*
X124877533Y-82241714D01*
X124829914Y-82336952D01*
X124782295Y-82384571D01*
X124687057Y-82432190D01*
X124306104Y-82432190D01*
X125258485Y-82003619D02*
X125306104Y-81956000D01*
X125401342Y-81908380D01*
X125639438Y-81908380D01*
X125734676Y-81956000D01*
X125782295Y-82003619D01*
X125829914Y-82098857D01*
X125829914Y-82194095D01*
X125782295Y-82336952D01*
X125210866Y-82908380D01*
X125829914Y-82908380D01*
%TO.C,J1*%
X116723580Y-87337733D02*
X117437866Y-87337733D01*
X117580723Y-87385352D01*
X117675961Y-87480590D01*
X117723580Y-87623447D01*
X117723580Y-87718685D01*
X117723580Y-86337733D02*
X117723580Y-86909161D01*
X117723580Y-86623447D02*
X116723580Y-86623447D01*
X116866438Y-86718685D01*
X116961676Y-86813923D01*
X117009295Y-86909161D01*
%TO.C,D3*%
X131976904Y-91511380D02*
X131976904Y-90511380D01*
X132215000Y-90511380D01*
X132357857Y-90559000D01*
X132453095Y-90654238D01*
X132500714Y-90749476D01*
X132548333Y-90939952D01*
X132548333Y-91082809D01*
X132500714Y-91273285D01*
X132453095Y-91368523D01*
X132357857Y-91463761D01*
X132215000Y-91511380D01*
X131976904Y-91511380D01*
X132881666Y-90511380D02*
X133500714Y-90511380D01*
X133167380Y-90892333D01*
X133310238Y-90892333D01*
X133405476Y-90939952D01*
X133453095Y-90987571D01*
X133500714Y-91082809D01*
X133500714Y-91320904D01*
X133453095Y-91416142D01*
X133405476Y-91463761D01*
X133310238Y-91511380D01*
X133024523Y-91511380D01*
X132929285Y-91463761D01*
X132881666Y-91416142D01*
%TO.C,D2*%
X131976904Y-89860380D02*
X131976904Y-88860380D01*
X132215000Y-88860380D01*
X132357857Y-88908000D01*
X132453095Y-89003238D01*
X132500714Y-89098476D01*
X132548333Y-89288952D01*
X132548333Y-89431809D01*
X132500714Y-89622285D01*
X132453095Y-89717523D01*
X132357857Y-89812761D01*
X132215000Y-89860380D01*
X131976904Y-89860380D01*
X132929285Y-88955619D02*
X132976904Y-88908000D01*
X133072142Y-88860380D01*
X133310238Y-88860380D01*
X133405476Y-88908000D01*
X133453095Y-88955619D01*
X133500714Y-89050857D01*
X133500714Y-89146095D01*
X133453095Y-89288952D01*
X132881666Y-89860380D01*
X133500714Y-89860380D01*
%TO.C,C12*%
X154984742Y-107628757D02*
X155032361Y-107676376D01*
X155079980Y-107819233D01*
X155079980Y-107914471D01*
X155032361Y-108057328D01*
X154937123Y-108152566D01*
X154841885Y-108200185D01*
X154651409Y-108247804D01*
X154508552Y-108247804D01*
X154318076Y-108200185D01*
X154222838Y-108152566D01*
X154127600Y-108057328D01*
X154079980Y-107914471D01*
X154079980Y-107819233D01*
X154127600Y-107676376D01*
X154175219Y-107628757D01*
X155079980Y-106676376D02*
X155079980Y-107247804D01*
X155079980Y-106962090D02*
X154079980Y-106962090D01*
X154222838Y-107057328D01*
X154318076Y-107152566D01*
X154365695Y-107247804D01*
X154175219Y-106295423D02*
X154127600Y-106247804D01*
X154079980Y-106152566D01*
X154079980Y-105914471D01*
X154127600Y-105819233D01*
X154175219Y-105771614D01*
X154270457Y-105723995D01*
X154365695Y-105723995D01*
X154508552Y-105771614D01*
X155079980Y-106343042D01*
X155079980Y-105723995D01*
%TO.C,C11*%
X165330142Y-85452357D02*
X165377761Y-85499976D01*
X165425380Y-85642833D01*
X165425380Y-85738071D01*
X165377761Y-85880928D01*
X165282523Y-85976166D01*
X165187285Y-86023785D01*
X164996809Y-86071404D01*
X164853952Y-86071404D01*
X164663476Y-86023785D01*
X164568238Y-85976166D01*
X164473000Y-85880928D01*
X164425380Y-85738071D01*
X164425380Y-85642833D01*
X164473000Y-85499976D01*
X164520619Y-85452357D01*
X165425380Y-84499976D02*
X165425380Y-85071404D01*
X165425380Y-84785690D02*
X164425380Y-84785690D01*
X164568238Y-84880928D01*
X164663476Y-84976166D01*
X164711095Y-85071404D01*
X165425380Y-83547595D02*
X165425380Y-84119023D01*
X165425380Y-83833309D02*
X164425380Y-83833309D01*
X164568238Y-83928547D01*
X164663476Y-84023785D01*
X164711095Y-84119023D01*
%TO.C,C10*%
X115071142Y-81185157D02*
X115118761Y-81232776D01*
X115166380Y-81375633D01*
X115166380Y-81470871D01*
X115118761Y-81613728D01*
X115023523Y-81708966D01*
X114928285Y-81756585D01*
X114737809Y-81804204D01*
X114594952Y-81804204D01*
X114404476Y-81756585D01*
X114309238Y-81708966D01*
X114214000Y-81613728D01*
X114166380Y-81470871D01*
X114166380Y-81375633D01*
X114214000Y-81232776D01*
X114261619Y-81185157D01*
X115166380Y-80232776D02*
X115166380Y-80804204D01*
X115166380Y-80518490D02*
X114166380Y-80518490D01*
X114309238Y-80613728D01*
X114404476Y-80708966D01*
X114452095Y-80804204D01*
X114166380Y-79613728D02*
X114166380Y-79518490D01*
X114214000Y-79423252D01*
X114261619Y-79375633D01*
X114356857Y-79328014D01*
X114547333Y-79280395D01*
X114785428Y-79280395D01*
X114975904Y-79328014D01*
X115071142Y-79375633D01*
X115118761Y-79423252D01*
X115166380Y-79518490D01*
X115166380Y-79613728D01*
X115118761Y-79708966D01*
X115071142Y-79756585D01*
X114975904Y-79804204D01*
X114785428Y-79851823D01*
X114547333Y-79851823D01*
X114356857Y-79804204D01*
X114261619Y-79756585D01*
X114214000Y-79708966D01*
X114166380Y-79613728D01*
%TO.C,C9*%
X165330142Y-80912166D02*
X165377761Y-80959785D01*
X165425380Y-81102642D01*
X165425380Y-81197880D01*
X165377761Y-81340738D01*
X165282523Y-81435976D01*
X165187285Y-81483595D01*
X164996809Y-81531214D01*
X164853952Y-81531214D01*
X164663476Y-81483595D01*
X164568238Y-81435976D01*
X164473000Y-81340738D01*
X164425380Y-81197880D01*
X164425380Y-81102642D01*
X164473000Y-80959785D01*
X164520619Y-80912166D01*
X165425380Y-80435976D02*
X165425380Y-80245500D01*
X165377761Y-80150261D01*
X165330142Y-80102642D01*
X165187285Y-80007404D01*
X164996809Y-79959785D01*
X164615857Y-79959785D01*
X164520619Y-80007404D01*
X164473000Y-80055023D01*
X164425380Y-80150261D01*
X164425380Y-80340738D01*
X164473000Y-80435976D01*
X164520619Y-80483595D01*
X164615857Y-80531214D01*
X164853952Y-80531214D01*
X164949190Y-80483595D01*
X164996809Y-80435976D01*
X165044428Y-80340738D01*
X165044428Y-80150261D01*
X164996809Y-80055023D01*
X164949190Y-80007404D01*
X164853952Y-79959785D01*
%TO.C,C8*%
X136755142Y-79922666D02*
X136802761Y-79970285D01*
X136850380Y-80113142D01*
X136850380Y-80208380D01*
X136802761Y-80351238D01*
X136707523Y-80446476D01*
X136612285Y-80494095D01*
X136421809Y-80541714D01*
X136278952Y-80541714D01*
X136088476Y-80494095D01*
X135993238Y-80446476D01*
X135898000Y-80351238D01*
X135850380Y-80208380D01*
X135850380Y-80113142D01*
X135898000Y-79970285D01*
X135945619Y-79922666D01*
X136278952Y-79351238D02*
X136231333Y-79446476D01*
X136183714Y-79494095D01*
X136088476Y-79541714D01*
X136040857Y-79541714D01*
X135945619Y-79494095D01*
X135898000Y-79446476D01*
X135850380Y-79351238D01*
X135850380Y-79160761D01*
X135898000Y-79065523D01*
X135945619Y-79017904D01*
X136040857Y-78970285D01*
X136088476Y-78970285D01*
X136183714Y-79017904D01*
X136231333Y-79065523D01*
X136278952Y-79160761D01*
X136278952Y-79351238D01*
X136326571Y-79446476D01*
X136374190Y-79494095D01*
X136469428Y-79541714D01*
X136659904Y-79541714D01*
X136755142Y-79494095D01*
X136802761Y-79446476D01*
X136850380Y-79351238D01*
X136850380Y-79160761D01*
X136802761Y-79065523D01*
X136755142Y-79017904D01*
X136659904Y-78970285D01*
X136469428Y-78970285D01*
X136374190Y-79017904D01*
X136326571Y-79065523D01*
X136278952Y-79160761D01*
%TO.C,C7*%
X115276333Y-94083142D02*
X115228714Y-94130761D01*
X115085857Y-94178380D01*
X114990619Y-94178380D01*
X114847761Y-94130761D01*
X114752523Y-94035523D01*
X114704904Y-93940285D01*
X114657285Y-93749809D01*
X114657285Y-93606952D01*
X114704904Y-93416476D01*
X114752523Y-93321238D01*
X114847761Y-93226000D01*
X114990619Y-93178380D01*
X115085857Y-93178380D01*
X115228714Y-93226000D01*
X115276333Y-93273619D01*
X115609666Y-93178380D02*
X116276333Y-93178380D01*
X115847761Y-94178380D01*
%TO.C,C6*%
X122769333Y-105894142D02*
X122721714Y-105941761D01*
X122578857Y-105989380D01*
X122483619Y-105989380D01*
X122340761Y-105941761D01*
X122245523Y-105846523D01*
X122197904Y-105751285D01*
X122150285Y-105560809D01*
X122150285Y-105417952D01*
X122197904Y-105227476D01*
X122245523Y-105132238D01*
X122340761Y-105037000D01*
X122483619Y-104989380D01*
X122578857Y-104989380D01*
X122721714Y-105037000D01*
X122769333Y-105084619D01*
X123626476Y-104989380D02*
X123436000Y-104989380D01*
X123340761Y-105037000D01*
X123293142Y-105084619D01*
X123197904Y-105227476D01*
X123150285Y-105417952D01*
X123150285Y-105798904D01*
X123197904Y-105894142D01*
X123245523Y-105941761D01*
X123340761Y-105989380D01*
X123531238Y-105989380D01*
X123626476Y-105941761D01*
X123674095Y-105894142D01*
X123721714Y-105798904D01*
X123721714Y-105560809D01*
X123674095Y-105465571D01*
X123626476Y-105417952D01*
X123531238Y-105370333D01*
X123340761Y-105370333D01*
X123245523Y-105417952D01*
X123197904Y-105465571D01*
X123150285Y-105560809D01*
%TO.C,C5*%
X126341142Y-89447666D02*
X126388761Y-89495285D01*
X126436380Y-89638142D01*
X126436380Y-89733380D01*
X126388761Y-89876238D01*
X126293523Y-89971476D01*
X126198285Y-90019095D01*
X126007809Y-90066714D01*
X125864952Y-90066714D01*
X125674476Y-90019095D01*
X125579238Y-89971476D01*
X125484000Y-89876238D01*
X125436380Y-89733380D01*
X125436380Y-89638142D01*
X125484000Y-89495285D01*
X125531619Y-89447666D01*
X125436380Y-88542904D02*
X125436380Y-89019095D01*
X125912571Y-89066714D01*
X125864952Y-89019095D01*
X125817333Y-88923857D01*
X125817333Y-88685761D01*
X125864952Y-88590523D01*
X125912571Y-88542904D01*
X126007809Y-88495285D01*
X126245904Y-88495285D01*
X126341142Y-88542904D01*
X126388761Y-88590523D01*
X126436380Y-88685761D01*
X126436380Y-88923857D01*
X126388761Y-89019095D01*
X126341142Y-89066714D01*
%TO.C,C4*%
X138152142Y-79922666D02*
X138199761Y-79970285D01*
X138247380Y-80113142D01*
X138247380Y-80208380D01*
X138199761Y-80351238D01*
X138104523Y-80446476D01*
X138009285Y-80494095D01*
X137818809Y-80541714D01*
X137675952Y-80541714D01*
X137485476Y-80494095D01*
X137390238Y-80446476D01*
X137295000Y-80351238D01*
X137247380Y-80208380D01*
X137247380Y-80113142D01*
X137295000Y-79970285D01*
X137342619Y-79922666D01*
X137580714Y-79065523D02*
X138247380Y-79065523D01*
X137199761Y-79303619D02*
X137914047Y-79541714D01*
X137914047Y-78922666D01*
%TO.C,C3*%
X115276333Y-95480142D02*
X115228714Y-95527761D01*
X115085857Y-95575380D01*
X114990619Y-95575380D01*
X114847761Y-95527761D01*
X114752523Y-95432523D01*
X114704904Y-95337285D01*
X114657285Y-95146809D01*
X114657285Y-95003952D01*
X114704904Y-94813476D01*
X114752523Y-94718238D01*
X114847761Y-94623000D01*
X114990619Y-94575380D01*
X115085857Y-94575380D01*
X115228714Y-94623000D01*
X115276333Y-94670619D01*
X115609666Y-94575380D02*
X116228714Y-94575380D01*
X115895380Y-94956333D01*
X116038238Y-94956333D01*
X116133476Y-95003952D01*
X116181095Y-95051571D01*
X116228714Y-95146809D01*
X116228714Y-95384904D01*
X116181095Y-95480142D01*
X116133476Y-95527761D01*
X116038238Y-95575380D01*
X115752523Y-95575380D01*
X115657285Y-95527761D01*
X115609666Y-95480142D01*
%TO.C,C2*%
X118291333Y-110212142D02*
X118243714Y-110259761D01*
X118100857Y-110307380D01*
X118005619Y-110307380D01*
X117862761Y-110259761D01*
X117767523Y-110164523D01*
X117719904Y-110069285D01*
X117672285Y-109878809D01*
X117672285Y-109735952D01*
X117719904Y-109545476D01*
X117767523Y-109450238D01*
X117862761Y-109355000D01*
X118005619Y-109307380D01*
X118100857Y-109307380D01*
X118243714Y-109355000D01*
X118291333Y-109402619D01*
X118672285Y-109402619D02*
X118719904Y-109355000D01*
X118815142Y-109307380D01*
X119053238Y-109307380D01*
X119148476Y-109355000D01*
X119196095Y-109402619D01*
X119243714Y-109497857D01*
X119243714Y-109593095D01*
X119196095Y-109735952D01*
X118624666Y-110307380D01*
X119243714Y-110307380D01*
%TO.C,C1*%
X121896142Y-88558666D02*
X121943761Y-88606285D01*
X121991380Y-88749142D01*
X121991380Y-88844380D01*
X121943761Y-88987238D01*
X121848523Y-89082476D01*
X121753285Y-89130095D01*
X121562809Y-89177714D01*
X121419952Y-89177714D01*
X121229476Y-89130095D01*
X121134238Y-89082476D01*
X121039000Y-88987238D01*
X120991380Y-88844380D01*
X120991380Y-88749142D01*
X121039000Y-88606285D01*
X121086619Y-88558666D01*
X121991380Y-87606285D02*
X121991380Y-88177714D01*
X121991380Y-87892000D02*
X120991380Y-87892000D01*
X121134238Y-87987238D01*
X121229476Y-88082476D01*
X121277095Y-88177714D01*
%TD*%
M02*
